{"glyphs":{"0":{"ha":645,"x_min":0,"x_max":0,"o":"m 397 198 l 198 198 l 198 992 l 397 992 z m 99 0 l 496 0 b 566 29 523 0 546 10 b 595 99 585 48 595 72 l 595 1091 b 566 1161 595 1119 585 1142 b 496 1190 546 1181 523 1190 l 99 1190 b 29 1161 72 1190 48 1180 b 0 1091 10 1142 0 1118 l 0 99 b 29 29 0 72 10 48 b 99 0 48 10 72 0 z "},"1":{"ha":446,"x_min":0,"x_max":0,"o":"m 198 0 l 397 0 l 397 1190 l 0 1190 l 0 992 l 198 992 z "},"2":{"ha":645,"x_min":0,"x_max":0,"o":"m 0 0 l 595 0 l 595 198 l 198 198 l 198 446 l 595 645 l 595 1091 b 566 1161 595 1119 585 1142 b 496 1190 546 1181 523 1190 l 99 1190 b 29 1161 72 1190 48 1181 b 0 1091 10 1142 0 1119 l 0 595 l 198 694 l 198 992 l 397 992 l 397 744 l 0 546 z "},"3":{"ha":645,"x_min":0,"x_max":0,"o":"m 99 0 l 496 0 b 566 29 523 0 546 10 b 595 99 585 48 595 72 l 595 595 l 496 595 l 595 645 l 595 1091 b 566 1161 595 1119 585 1142 b 496 1190 546 1181 523 1190 l 99 1190 b 29 1161 72 1190 48 1181 b 0 1091 10 1142 0 1119 l 0 595 l 198 694 l 198 992 l 397 992 l 397 744 l 99 595 l 99 397 l 397 546 l 397 198 l 198 198 l 198 397 l 0 297 l 0 99 b 29 29 0 72 10 48 b 99 0 48 10 72 0 z "},"4":{"ha":645,"x_min":0,"x_max":0,"o":"m 397 0 l 595 0 l 595 1190 l 397 1190 l 397 744 l 198 645 l 198 1190 l 0 1190 l 0 347 l 397 546 z "},"5":{"ha":645,"x_min":0,"x_max":0,"o":"m 99 0 l 496 0 b 566 29 523 0 546 10 b 595 99 585 48 595 72 l 595 843 l 198 645 l 198 992 l 595 992 l 595 1190 l 0 1190 l 0 347 l 397 546 l 397 198 l 198 198 l 198 397 l 0 297 l 0 99 b 29 29 0 72 10 48 b 99 0 48 10 72 0 z "},"6":{"ha":645,"x_min":0,"x_max":0,"o":"m 397 198 l 198 198 l 198 446 l 397 546 z m 99 0 l 496 0 b 566 29 523 0 546 10 b 595 99 585 48 595 72 l 595 843 l 198 645 l 198 992 l 397 992 l 397 793 l 595 893 l 595 1091 b 566 1161 595 1119 585 1142 b 496 1190 546 1181 523 1190 l 99 1190 b 29 1161 72 1190 48 1180 b 0 1091 10 1142 0 1118 l 0 99 b 29 29 0 72 10 48 b 99 0 48 10 72 0 z "},"7":{"ha":645,"x_min":0,"x_max":0,"o":"m 198 0 l 397 0 l 397 595 l 595 1190 l 0 1190 l 0 992 l 331 992 l 198 595 z "},"8":{"ha":645,"x_min":0,"x_max":0,"o":"m 397 198 l 198 198 l 198 446 l 397 546 z m 198 645 l 198 645 l 198 992 l 397 992 l 397 744 z m 99 0 l 496 0 b 566 29 523 0 546 10 b 595 99 585 48 595 72 l 595 595 l 496 595 l 595 645 l 595 1091 b 566 1161 595 1119 585 1142 b 496 1190 546 1181 523 1190 l 99 1190 b 29 1161 72 1190 48 1181 b 0 1091 10 1142 0 1119 l 0 595 l 99 595 l 0 546 l 0 99 b 29 29 0 72 10 48 b 99 0 48 10 72 0 z "},"9":{"ha":645,"x_min":0,"x_max":0,"o":"m 198 645 l 198 645 l 198 992 l 397 992 l 397 744 z m 99 0 l 496 0 b 566 29 523 0 546 10 b 595 99 585 49 595 72 l 595 1091 b 566 1161 595 1119 585 1142 b 496 1190 546 1181 523 1190 l 99 1190 b 29 1161 72 1190 48 1181 b 0 1091 10 1142 0 1119 l 0 347 l 397 546 l 397 198 l 198 198 l 198 397 l 0 297 l 0 99 b 29 29 0 72 10 48 b 99 0 48 10 72 0 z "}," ":{"ha":248,"x_min":0,"x_max":0,"o":""},"!":{"ha":248,"x_min":0,"x_max":0,"o":"m 0 0 l 198 0 l 198 198 l 0 198 z m 0 248 l 198 248 l 198 1190 l 0 1190 z "},"\"":{"ha":496,"x_min":0,"x_max":0,"o":"m 0 793 l 198 793 l 198 1190 l 0 1190 z m 248 793 l 446 793 l 446 1190 l 248 1190 z "},"#":{"ha":744,"x_min":0,"x_max":0,"o":"m 297 397 l 297 397 l 297 595 l 397 645 l 397 446 z m 99 0 l 297 0 l 297 198 l 397 248 l 397 0 l 595 0 l 595 347 l 694 397 l 694 595 l 595 546 l 595 744 l 694 793 l 694 992 l 595 942 l 595 992 l 397 992 l 397 843 l 297 793 l 297 992 l 99 992 l 99 694 l 0 645 l 0 446 l 99 496 l 99 297 l 0 248 l 0 50 l 99 99 z "},"$":{"ha":645,"x_min":0,"x_max":0,"o":"m 198 0 l 397 0 l 397 99 l 496 99 b 566 128 523 99 546 109 b 595 198 585 148 595 171 l 595 843 l 198 645 l 198 893 l 397 893 l 397 793 l 595 893 l 595 992 b 566 1062 595 1019 585 1043 b 496 1091 546 1081 523 1091 l 397 1091 l 397 1190 l 198 1190 l 198 1091 l 99 1091 b 29 1062 72 1091 48 1081 b 0 992 10 1043 0 1019 l 0 992 l 0 347 l 397 546 l 397 297 l 198 297 l 198 397 l 0 297 l 0 198 b 29 128 0 171 10 148 b 99 99 48 109 72 99 l 198 99 z "},"%":{"ha":645,"x_min":0,"x_max":0,"o":"m 397 198 l 297 198 l 297 397 l 397 397 z m 297 793 l 198 793 l 198 992 l 297 992 z m 198 0 l 496 0 b 566 29 523 0 546 10 b 595 99 585 49 595 72 l 595 496 b 566 566 595 523 585 546 b 496 595 546 585 523 595 l 595 645 l 595 843 l 496 793 l 496 1091 b 467 1161 496 1119 486 1142 b 397 1190 447 1181 424 1190 l 99 1190 b 29 1161 72 1190 48 1180 b 0 1091 10 1142 0 1118 l 0 694 b 29 624 0 667 10 643 b 99 595 48 605 72 595 l 0 546 l 0 347 l 99 397 l 99 99 b 128 29 99 72 109 48 b 198 0 148 10 171 0 z "},"&":{"ha":694,"x_min":0,"x_max":0,"o":"m 99 0 l 496 0 b 566 29 523 0 546 10 b 595 99 585 48 595 72 l 595 397 l 645 421 l 645 620 l 347 471 l 347 273 l 397 297 l 397 198 l 198 198 l 198 446 l 397 546 l 397 744 l 198 645 l 198 992 l 397 992 l 397 793 l 595 893 l 595 1091 b 566 1161 595 1119 585 1142 b 496 1190 546 1181 523 1190 l 99 1190 b 29 1161 72 1190 48 1181 b 0 1091 10 1142 0 1119 l 0 595 l 99 595 l 0 546 l 0 99 b 29 29 0 72 10 48 b 99 0 48 10 72 0 z "},"'":{"ha":248,"x_min":0,"x_max":0,"o":"m 0 793 l 198 793 l 198 1190 l 0 1190 z "},"(":{"ha":347,"x_min":0,"x_max":0,"o":"m 99 0 l 297 0 l 297 198 l 198 198 l 198 992 l 297 992 l 297 1190 l 99 1190 b 29 1161 72 1190 48 1180 b 0 1091 10 1142 0 1118 l 0 99 b 29 29 0 72 10 48 b 99 0 48 10 72 0 z "},")":{"ha":347,"x_min":0,"x_max":0,"o":"m 0 0 l 198 0 b 269 29 226 0 249 10 b 297 99 288 48 297 72 l 297 1091 b 269 1161 297 1118 288 1142 b 198 1190 249 1180 226 1190 l 0 1190 l 0 992 l 99 992 l 99 198 l 0 198 z "},"*":{"ha":248,"x_min":0,"x_max":0,"o":"m 38 997 l 38 997 l 99 1041 l 160 997 l 160 997 l 137 1069 l 198 1114 l 122 1114 l 99 1185 l 76 1114 l 0 1114 l 61 1069 z "},"+":{"ha":446,"x_min":0,"x_max":0,"o":"m 99 297 l 297 297 l 297 496 l 397 546 l 397 744 l 297 694 l 297 793 l 99 793 l 99 595 l 0 546 l 0 347 l 99 397 z "},",":{"ha":248,"x_min":0,"x_max":0,"o":"m 0 -198 l 99 -198 l 198 0 l 198 198 l 0 198 z "},"-":{"ha":446,"x_min":0,"x_max":0,"o":"m 0 347 l 0 347 l 397 546 l 397 744 l 0 546 z "},".":{"ha":248,"x_min":0,"x_max":0,"o":"m 0 0 l 198 0 l 198 198 l 0 198 z "},"/":{"ha":645,"x_min":0,"x_max":0,"o":"m 0 0 l 99 0 l 595 992 l 595 1190 l 496 1190 l 0 198 z "},":":{"ha":248,"x_min":0,"x_max":0,"o":"m 0 0 l 198 0 l 198 198 l 0 198 z m 0 595 l 198 595 l 198 793 l 0 793 z "},";":{"ha":248,"x_min":0,"x_max":0,"o":"m 0 -198 l 99 -198 l 198 0 l 198 198 l 0 198 z m 0 595 l 198 595 l 198 793 l 0 793 z "},"<":{"ha":446,"x_min":0,"x_max":0,"o":"m 397 297 l 397 297 l 397 496 l 297 546 l 397 595 l 397 793 l 0 595 l 0 496 z "},"=":{"ha":446,"x_min":0,"x_max":0,"o":"m 0 211 l 0 211 l 397 409 l 397 608 l 0 409 z m 0 446 l 0 446 l 397 645 l 397 843 l 0 645 z "},">":{"ha":446,"x_min":0,"x_max":0,"o":"m 0 297 l 0 297 l 397 496 l 397 595 l 0 793 l 0 595 l 99 546 l 0 496 z "},"?":{"ha":645,"x_min":0,"x_max":0,"o":"m 198 0 l 397 0 l 397 198 l 198 198 z m 198 248 l 397 248 l 397 546 l 595 645 l 595 1091 b 566 1161 595 1119 585 1142 b 496 1190 546 1181 523 1190 l 99 1190 b 29 1161 72 1190 48 1181 b 0 1091 10 1142 0 1119 l 0 595 l 198 694 l 198 992 l 397 992 l 397 744 l 198 645 z "},"@":{"ha":1141,"x_min":0,"x_max":0,"o":"m 595 496 l 496 496 l 496 694 l 595 694 z m 99 0 l 1091 0 l 1091 198 l 198 198 l 198 992 l 893 992 l 893 496 l 793 496 l 793 893 l 397 893 b 327 864 369 893 346 883 b 297 793 307 844 297 821 l 297 397 b 327 327 297 369 307 346 b 397 297 346 307 369 297 l 595 297 b 665 327 622 297 646 307 b 694 397 685 346 694 369 l 694 297 l 992 297 b 1062 327 1019 297 1043 307 b 1091 397 1081 346 1091 369 l 1091 1091 b 1062 1161 1091 1119 1081 1142 b 992 1190 1043 1181 1019 1190 l 99 1190 b 29 1161 72 1190 48 1180 b 0 1091 10 1142 0 1118 l 0 99 b 29 29 0 72 10 48 b 99 0 48 10 72 0 z "},"A":{"ha":645,"x_min":0,"x_max":0,"o":"m 198 645 l 198 645 l 198 992 l 397 992 l 397 744 z m 0 0 l 198 0 l 198 446 l 397 546 l 397 0 l 595 0 l 595 1091 b 566 1161 595 1119 585 1142 b 496 1190 546 1181 523 1190 l 99 1190 b 29 1161 72 1190 48 1180 b 0 1091 10 1142 0 1118 z "},"B":{"ha":645,"x_min":0,"x_max":0,"o":"m 397 198 l 198 198 l 198 446 l 397 546 z m 198 645 l 198 645 l 198 992 l 397 992 l 397 744 z m 0 0 l 496 0 b 566 29 523 0 546 10 b 595 99 585 48 595 72 l 595 595 l 496 595 l 595 645 l 595 1091 b 566 1161 595 1119 585 1142 b 496 1190 546 1181 523 1190 l 0 1190 z "},"C":{"ha":645,"x_min":0,"x_max":0,"o":"m 99 0 l 496 0 b 566 29 523 0 546 10 b 595 99 585 48 595 72 l 595 446 l 397 347 l 397 198 l 198 198 l 198 992 l 397 992 l 397 744 l 595 843 l 595 1091 b 566 1161 595 1119 585 1142 b 496 1190 546 1181 523 1190 l 99 1190 b 29 1161 72 1190 48 1180 b 0 1091 10 1142 0 1118 l 0 99 b 29 29 0 72 10 48 b 99 0 48 10 72 0 z "},"D":{"ha":645,"x_min":0,"x_max":0,"o":"m 397 198 l 198 198 l 198 992 l 397 992 z m 0 0 l 496 0 b 566 29 523 0 546 10 b 595 99 585 48 595 72 l 595 1091 b 566 1161 595 1119 585 1142 b 496 1190 546 1181 523 1190 l 0 1190 z "},"E":{"ha":546,"x_min":0,"x_max":0,"o":"m 0 0 l 496 0 l 496 198 l 198 198 l 198 446 l 496 595 l 496 793 l 198 645 l 198 992 l 496 992 l 496 1190 l 0 1190 z "},"F":{"ha":546,"x_min":0,"x_max":0,"o":"m 0 0 l 198 0 l 198 446 l 496 595 l 496 793 l 198 645 l 198 992 l 496 992 l 496 1190 l 0 1190 z "},"G":{"ha":645,"x_min":0,"x_max":0,"o":"m 99 0 l 595 0 l 595 793 l 248 620 l 248 421 l 397 496 l 397 198 l 198 198 l 198 992 l 397 992 l 397 744 l 595 843 l 595 1091 b 566 1161 595 1119 585 1142 b 496 1190 546 1181 523 1190 l 99 1190 b 29 1161 72 1190 48 1180 b 0 1091 10 1142 0 1118 l 0 99 b 29 29 0 72 10 48 b 99 0 48 10 72 0 z "},"H":{"ha":645,"x_min":0,"x_max":0,"o":"m 0 0 l 198 0 l 198 446 l 397 546 l 397 0 l 595 0 l 595 1190 l 397 1190 l 397 744 l 198 645 l 198 1190 l 0 1190 z "},"I":{"ha":248,"x_min":0,"x_max":0,"o":"m 0 0 l 198 0 l 198 1190 l 0 1190 z "},"J":{"ha":645,"x_min":0,"x_max":0,"o":"m 99 0 l 496 0 b 566 29 523 0 546 10 b 595 99 585 48 595 72 l 595 1190 l 198 1190 l 198 992 l 397 992 l 397 198 l 198 198 l 198 446 l 0 347 l 0 99 b 29 29 0 72 10 48 b 99 0 48 10 72 0 z "},"K":{"ha":645,"x_min":0,"x_max":0,"o":"m 0 0 l 198 0 l 198 1190 l 0 1190 z m 397 0 l 595 0 l 397 595 l 595 1190 l 397 1190 l 198 595 z "},"L":{"ha":546,"x_min":0,"x_max":0,"o":"m 0 0 l 496 0 l 496 198 l 198 198 l 198 1190 l 0 1190 z "},"M":{"ha":1042,"x_min":0,"x_max":0,"o":"m 0 0 l 198 0 l 198 992 l 397 992 l 397 0 l 595 0 l 595 992 l 669 992 l 669 992 l 793 992 l 793 0 l 992 0 l 992 1091 b 963 1161 992 1119 982 1142 b 893 1190 944 1181 920 1190 l 570 1190 b 500 1161 543 1190 520 1180 b 496 1157 499 1160 497 1158 l 492 1161 b 421 1190 472 1181 449 1190 l 99 1190 b 29 1161 72 1190 48 1180 b 0 1091 10 1142 0 1118 z "},"N":{"ha":645,"x_min":0,"x_max":0,"o":"m 0 0 l 198 0 l 198 992 l 397 992 l 397 0 l 595 0 l 595 1091 b 566 1161 595 1119 585 1142 b 496 1190 546 1181 523 1190 l 297 1190 b 227 1161 270 1190 247 1180 b 198 1091 208 1142 198 1118 l 198 1190 l 0 1190 z "},"O":{"ha":645,"x_min":0,"x_max":0,"o":"m 397 198 l 198 198 l 198 992 l 397 992 z m 99 0 l 496 0 b 566 29 523 0 546 10 b 595 99 585 48 595 72 l 595 1091 b 566 1161 595 1119 585 1142 b 496 1190 546 1181 523 1190 l 99 1190 b 29 1161 72 1190 48 1180 b 0 1091 10 1142 0 1118 l 0 99 b 29 29 0 72 10 48 b 99 0 48 10 72 0 z "},"P":{"ha":645,"x_min":0,"x_max":0,"o":"m 198 645 l 198 645 l 198 992 l 397 992 l 397 744 z m 0 0 l 198 0 l 198 446 l 595 645 l 595 1091 b 566 1161 595 1119 585 1142 b 496 1190 546 1181 523 1190 l 0 1190 z "},"Q":{"ha":645,"x_min":0,"x_max":0,"o":"m 397 198 l 198 198 l 198 992 l 397 992 z m 297 -198 l 496 -198 l 397 0 l 496 0 b 566 29 523 0 546 10 b 595 99 585 48 595 72 l 595 1091 b 566 1161 595 1119 585 1142 b 496 1190 546 1181 523 1190 l 99 1190 b 29 1161 72 1190 48 1180 b 0 1091 10 1142 0 1118 l 0 99 b 29 29 0 72 10 48 b 99 0 48 10 72 0 l 198 0 z "},"R":{"ha":645,"x_min":0,"x_max":0,"o":"m 198 645 l 198 645 l 198 992 l 397 992 l 397 744 z m 0 0 l 198 0 l 198 446 l 283 489 l 446 0 l 645 0 l 453 574 l 595 645 l 595 1091 b 566 1161 595 1119 585 1142 b 496 1190 546 1181 523 1190 l 0 1190 z "},"S":{"ha":645,"x_min":0,"x_max":0,"o":"m 99 0 l 496 0 b 566 29 523 0 546 10 b 595 99 585 48 595 72 l 595 843 l 198 645 l 198 992 l 397 992 l 397 793 l 595 893 l 595 1091 b 566 1161 595 1119 585 1142 b 496 1190 546 1181 523 1190 l 99 1190 b 29 1161 72 1190 48 1180 b 0 1091 10 1142 0 1118 l 0 347 l 397 546 l 397 198 l 198 198 l 198 397 l 0 297 l 0 99 b 29 29 0 72 10 48 b 99 0 48 10 72 0 z "},"T":{"ha":645,"x_min":0,"x_max":0,"o":"m 198 0 l 397 0 l 397 992 l 595 992 l 595 1190 l 0 1190 l 0 992 l 198 992 z "},"U":{"ha":645,"x_min":0,"x_max":0,"o":"m 99 0 l 496 0 b 566 29 523 0 546 10 b 595 99 585 48 595 72 l 595 1190 l 397 1190 l 397 198 l 198 198 l 198 1190 l 0 1190 l 0 99 b 29 29 0 72 10 48 b 99 0 48 10 72 0 z "},"V":{"ha":645,"x_min":0,"x_max":0,"o":"m 188 0 l 407 0 l 645 1190 l 446 1190 l 297 446 l 149 1190 l -50 1190 z "},"W":{"ha":1042,"x_min":0,"x_max":0,"o":"m 99 0 l 421 0 b 492 29 449 0 472 10 b 496 33 493 30 495 32 b 500 29 497 32 499 31 b 570 0 520 10 543 0 l 893 0 b 963 29 920 0 944 10 b 992 99 982 48 992 72 l 992 1190 l 793 1190 l 793 198 l 669 198 l 669 198 l 595 198 l 595 1190 l 397 1190 l 397 198 l 198 198 l 198 1190 l 0 1190 l 0 99 b 29 29 0 72 10 49 b 99 0 48 10 72 0 z "},"X":{"ha":645,"x_min":0,"x_max":0,"o":"m 0 0 l 198 0 l 264 198 l 264 199 l 297 297 l 397 0 l 595 0 l 397 595 l 595 1190 l 397 1190 l 297 893 l 264 991 l 264 992 l 198 1190 l 0 1190 l 198 595 z "},"Y":{"ha":645,"x_min":0,"x_max":0,"o":"m 99 0 l 496 0 b 566 29 523 0 546 10 b 595 99 585 48 595 72 l 595 1190 l 397 1190 l 397 744 l 198 645 l 198 1190 l 0 1190 l 0 347 l 397 546 l 397 198 l 198 198 l 198 397 l 0 297 l 0 99 b 29 29 0 72 10 48 b 99 0 48 10 72 0 z "},"Z":{"ha":645,"x_min":0,"x_max":0,"o":"m 0 0 l 595 0 l 595 198 l 264 198 l 595 1190 l 0 1190 l 0 992 l 331 992 z "},"[":{"ha":347,"x_min":0,"x_max":0,"o":"m 0 0 l 297 0 l 297 198 l 198 198 l 198 992 l 297 992 l 297 1190 l 0 1190 z "},"\\":{"ha":645,"x_min":0,"x_max":0,"o":"m 496 0 l 595 0 l 595 198 l 99 1190 l 0 1190 l 0 992 z "},"]":{"ha":347,"x_min":0,"x_max":0,"o":"m 0 0 l 297 0 l 297 1190 l 0 1190 l 0 992 l 99 992 l 99 198 l 0 198 z "},"^":{"ha":546,"x_min":0,"x_max":0,"o":"m 0 793 l 198 793 l 248 893 l 297 793 l 496 793 l 297 1190 l 198 1190 z "},"_":{"ha":645,"x_min":0,"x_max":0,"o":"m 0 0 l 595 0 l 595 198 l 0 198 z "},"`":{"ha":446,"x_min":0,"x_max":0,"o":"m 198 793 l 397 793 l 198 1190 l 0 1190 z "},"a":{"ha":645,"x_min":0,"x_max":0,"o":"m 397 198 l 198 198 l 198 397 l 397 496 z m 99 0 l 297 0 b 368 29 325 0 348 10 b 397 99 387 48 397 72 l 397 0 l 595 0 l 595 893 b 566 963 595 920 585 944 b 496 992 546 982 523 992 l 99 992 b 29 963 72 992 48 982 b 0 893 10 943 0 920 l 0 893 l 0 546 l 198 645 l 198 793 l 397 793 l 397 694 l 0 496 l 0 99 b 29 29 0 72 10 48 b 99 0 48 10 72 0 z "},"b":{"ha":645,"x_min":0,"x_max":0,"o":"m 397 198 l 198 198 l 198 793 l 397 793 z m 0 0 l 198 0 l 198 99 b 227 29 198 72 208 48 b 297 0 247 10 270 0 l 496 0 b 566 29 523 0 546 10 b 595 99 585 48 595 72 l 595 893 b 566 963 595 920 585 944 b 496 992 546 982 523 992 l 297 992 b 227 963 270 992 247 982 b 198 892 208 943 198 920 l 198 1190 l 0 1091 z "},"c":{"ha":645,"x_min":0,"x_max":0,"o":"m 99 0 l 496 0 b 566 29 523 0 546 10 b 595 99 585 48 595 72 l 595 397 l 397 297 l 397 198 l 198 198 l 198 793 l 397 793 l 397 595 l 595 694 l 595 893 b 566 963 595 920 585 944 b 496 992 546 982 523 992 l 99 992 b 29 963 72 992 48 982 b 0 892 10 943 0 920 l 0 99 b 29 29 0 72 10 48 b 99 0 48 10 72 0 z "},"d":{"ha":645,"x_min":0,"x_max":0,"o":"m 397 198 l 198 198 l 198 793 l 397 793 z m 99 0 l 297 0 b 368 29 325 0 348 10 b 397 99 387 48 397 72 l 397 0 l 595 0 l 595 1190 l 397 1091 l 397 892 b 368 963 397 920 387 943 b 297 992 348 982 325 992 l 99 992 b 29 963 72 992 48 982 b 0 893 10 944 0 920 l 0 99 b 29 29 0 72 10 48 b 99 0 48 10 72 0 z "},"e":{"ha":645,"x_min":0,"x_max":0,"o":"m 198 496 l 198 496 l 198 793 l 397 793 l 397 595 z m 99 0 l 496 0 b 566 29 523 0 546 10 b 595 99 585 48 595 72 l 595 446 l 397 347 l 397 198 l 198 198 l 198 297 l 595 496 l 595 893 b 566 963 595 920 585 944 b 496 992 546 982 523 992 l 99 992 b 29 963 72 992 48 982 b 0 893 10 943 0 920 l 0 893 l 0 99 b 29 29 0 72 10 48 b 99 0 48 10 72 0 z "},"f":{"ha":645,"x_min":0,"x_max":0,"o":"m 0 0 l 198 0 l 198 446 l 496 595 l 496 793 l 198 645 l 198 992 l 397 992 l 397 793 l 595 893 l 595 1091 b 566 1161 595 1119 585 1142 b 496 1190 546 1181 523 1190 l 99 1190 b 29 1161 72 1190 48 1180 b 0 1091 10 1142 0 1118 z "},"g":{"ha":645,"x_min":0,"x_max":0,"o":"m 198 446 l 198 446 l 198 793 l 397 793 l 397 546 z m 99 -198 l 496 -198 b 566 -169 523 -198 546 -189 b 595 -99 585 -150 595 -126 l 595 992 l 397 992 l 397 893 b 368 963 397 920 387 944 b 297 992 348 982 325 992 l 99 992 b 29 963 72 992 48 982 b 0 892 10 943 0 920 l 0 149 l 397 347 l 397 0 l 198 0 l 198 198 l 0 99 l 0 -99 b 29 -169 0 -126 10 -150 b 99 -198 48 -189 72 -198 z "},"h":{"ha":645,"x_min":0,"x_max":0,"o":"m 0 0 l 198 0 l 198 793 l 397 793 l 397 0 l 595 0 l 595 893 b 566 963 595 920 585 944 b 496 992 546 982 523 992 l 297 992 b 227 963 270 992 247 982 b 198 892 208 943 198 920 l 198 1190 l 0 1091 z "},"i":{"ha":248,"x_min":0,"x_max":0,"o":"m 0 0 l 198 0 l 198 992 l 0 893 z m 0 942 l 0 942 l 198 1042 l 198 1240 l 0 1141 z "},"j":{"ha":248,"x_min":0,"x_max":0,"o":"m 0 -248 l 0 -248 l 198 -149 l 198 992 l 0 893 z m 0 942 l 0 942 l 198 1042 l 198 1240 l 0 1141 z "},"k":{"ha":645,"x_min":0,"x_max":0,"o":"m 0 0 l 198 0 l 198 397 l 397 0 l 595 0 l 347 496 l 595 992 l 397 992 l 198 595 l 198 1190 l 0 1190 z "},"l":{"ha":248,"x_min":0,"x_max":0,"o":"m 0 0 l 198 0 l 198 1190 l 0 1091 z "},"m":{"ha":1042,"x_min":0,"x_max":0,"o":"m 0 0 l 198 0 l 198 793 l 397 793 l 397 0 l 595 0 l 595 793 l 793 793 l 793 0 l 992 0 l 992 893 b 963 963 992 920 982 944 b 893 992 944 982 920 992 l 694 992 b 624 963 667 992 643 982 b 595 892 605 943 595 920 l 595 893 b 566 963 595 920 585 944 b 496 992 546 982 523 992 l 297 992 b 227 963 270 992 247 982 b 198 892 208 943 198 920 l 198 992 l 0 992 z "},"n":{"ha":645,"x_min":0,"x_max":0,"o":"m 0 0 l 198 0 l 198 793 l 397 793 l 397 0 l 595 0 l 595 893 b 566 963 595 920 585 944 b 496 992 546 982 523 992 l 297 992 b 227 963 270 992 247 982 b 198 892 208 943 198 920 l 198 992 l 0 992 z "},"o":{"ha":645,"x_min":0,"x_max":0,"o":"m 397 198 l 198 198 l 198 793 l 397 793 z m 99 0 l 496 0 b 566 29 523 0 546 10 b 595 99 585 48 595 72 l 595 893 b 566 963 595 920 585 944 b 496 992 546 982 523 992 l 99 992 b 29 963 72 992 48 982 b 0 893 10 943 0 920 l 0 893 l 0 99 b 29 29 0 72 10 48 b 99 0 48 10 72 0 z "},"p":{"ha":645,"x_min":0,"x_max":0,"o":"m 397 198 l 198 198 l 198 793 l 397 793 z m 0 -198 l 198 -198 l 198 99 b 227 29 198 72 208 49 b 297 0 247 10 270 0 l 496 0 b 566 29 523 0 546 10 b 595 99 585 48 595 72 l 595 893 b 566 963 595 920 585 944 b 496 992 546 982 523 992 l 297 992 b 227 963 270 992 247 982 b 198 893 208 944 198 920 l 198 992 l 0 992 z "},"q":{"ha":645,"x_min":0,"x_max":0,"o":"m 397 198 l 198 198 l 198 793 l 397 793 z m 397 -198 l 595 -198 l 595 992 l 397 992 l 397 893 b 368 963 397 920 387 944 b 297 992 348 982 325 992 l 99 992 b 29 963 72 992 48 982 b 0 893 10 944 0 920 l 0 99 b 29 29 0 72 10 48 b 99 0 48 10 72 0 l 297 0 b 368 29 325 0 348 10 b 397 99 387 49 397 72 z "},"r":{"ha":546,"x_min":0,"x_max":0,"o":"m 0 0 l 198 0 l 198 793 l 297 793 l 297 595 l 496 694 l 496 893 b 467 963 496 920 486 944 b 397 992 447 982 424 992 l 297 992 b 227 963 270 992 247 982 b 198 892 208 943 198 920 l 198 992 l 0 992 z "},"s":{"ha":645,"x_min":0,"x_max":0,"o":"m 99 0 l 496 0 b 566 29 523 0 546 10 b 595 99 585 48 595 72 l 595 744 l 198 546 l 198 793 l 397 793 l 397 694 l 595 793 l 595 893 b 566 963 595 920 585 944 b 496 992 546 982 523 992 l 99 992 b 29 963 72 992 48 982 b 0 893 10 943 0 920 l 0 893 l 0 248 l 397 446 l 397 198 l 198 198 l 198 297 l 0 198 l 0 99 b 29 29 0 72 10 48 b 99 0 48 10 72 0 z "},"t":{"ha":645,"x_min":0,"x_max":0,"o":"m 297 0 l 595 0 l 595 198 l 397 198 l 397 694 l 595 793 l 595 992 l 397 893 l 397 1190 l 198 1190 l 198 793 l 0 694 l 0 496 l 198 595 l 198 99 b 227 29 198 72 208 48 b 297 0 247 10 270 0 z "},"u":{"ha":645,"x_min":0,"x_max":0,"o":"m 99 0 l 297 0 b 368 29 325 0 348 10 b 397 99 387 49 397 72 l 397 0 l 595 0 l 595 992 l 397 992 l 397 198 l 198 198 l 198 992 l 0 992 l 0 99 b 29 29 0 72 10 48 b 99 0 48 10 72 0 z "},"v":{"ha":645,"x_min":0,"x_max":0,"o":"m 188 0 l 407 0 l 605 992 l 407 992 l 297 446 l 188 992 l -10 992 z "},"w":{"ha":1042,"x_min":0,"x_max":0,"o":"m 99 0 l 421 0 b 492 29 449 0 472 10 b 496 33 493 30 495 32 b 500 29 497 32 499 31 b 570 0 520 10 543 0 l 893 0 b 963 29 920 0 944 10 b 992 99 982 48 992 72 l 992 992 l 793 992 l 793 198 l 669 198 l 669 198 l 595 198 l 595 992 l 397 992 l 397 198 l 198 198 l 198 992 l 0 992 l 0 99 b 29 29 0 72 10 49 b 99 0 48 10 72 0 z "},"x":{"ha":645,"x_min":0,"x_max":0,"o":"m -50 0 l 149 0 l 297 297 l 446 0 l 645 0 l 397 496 l 645 992 l 446 992 l 297 694 l 149 992 l -50 992 l 198 496 z "},"y":{"ha":645,"x_min":0,"x_max":0,"o":"m 99 -198 l 496 -198 b 566 -169 523 -198 546 -189 b 595 -99 585 -150 595 -126 l 595 992 l 397 992 l 397 546 l 198 446 l 198 992 l 0 992 l 0 149 l 397 347 l 397 0 l 198 0 l 198 198 l 0 99 l 0 -99 b 29 -169 0 -126 10 -150 b 99 -198 48 -189 72 -198 z "},"z":{"ha":570,"x_min":0,"x_max":0,"o":"m 0 0 l 521 0 l 521 198 l 264 198 l 529 992 l 0 992 l 0 793 l 264 793 z "},"{":{"ha":446,"x_min":0,"x_max":0,"o":"m 198 0 l 397 0 l 397 198 l 297 198 l 297 496 b 269 566 297 523 288 546 b 198 595 249 585 226 595 b 269 624 226 595 249 605 b 297 694 288 643 297 667 l 297 992 l 397 992 l 397 1190 l 198 1190 b 128 1161 171 1190 148 1180 b 99 1091 109 1142 99 1118 l 99 694 b 70 624 99 667 89 643 b 0 595 51 605 27 595 b 70 566 27 595 51 585 b 99 496 89 546 99 523 l 99 99 b 128 29 99 72 109 48 b 198 0 148 10 171 0 z "},"|":{"ha":248,"x_min":0,"x_max":0,"o":"m 0 -198 l 198 -198 l 198 1190 l 0 1190 z "},"}":{"ha":446,"x_min":0,"x_max":0,"o":"m 0 0 l 198 0 b 269 29 226 0 249 10 b 297 99 288 48 297 72 l 297 496 b 327 566 297 523 307 546 b 397 595 346 585 369 595 b 327 624 369 595 346 605 b 297 694 307 643 297 667 l 297 1091 b 269 1161 297 1118 288 1142 b 198 1190 249 1180 226 1190 l 0 1190 l 0 992 l 99 992 l 99 694 b 128 624 99 667 109 643 b 198 595 148 605 171 595 b 128 566 171 595 148 585 b 99 496 109 546 99 523 l 99 198 l 0 198 z "},"~":{"ha":546,"x_min":0,"x_max":0,"o":"m 198 397 l 198 397 l 198 496 b 227 426 198 468 208 445 b 297 397 247 406 270 397 l 397 397 b 467 426 424 397 447 406 b 496 496 486 445 496 468 l 496 595 l 297 694 l 297 595 b 269 665 297 622 288 646 b 198 694 249 685 226 694 l 99 694 b 29 665 72 694 48 685 b 0 595 10 646 0 622 l 0 595 l 0 496 l 0 496 z "},"À":{"ha":645,"x_min":0,"x_max":0,"o":"m 397 198 l 198 198 l 198 793 l 397 793 z m 0 -198 l 0 -198 l 198 -99 l 198 99 b 227 29 198 72 208 49 b 297 0 247 10 270 0 l 496 0 b 566 29 523 0 546 10 b 595 99 585 48 595 72 l 595 893 b 566 963 595 920 585 944 b 496 992 546 982 523 992 l 297 992 b 227 963 270 992 247 982 b 198 893 208 944 198 920 l 198 992 l 0 992 z "},"Á":{"ha":645,"x_min":0,"x_max":0,"o":"m 397 198 l 198 198 l 198 793 l 397 793 z m 397 -198 l 397 -198 l 595 -99 l 595 992 l 397 992 l 397 893 b 368 963 397 920 387 944 b 297 992 348 982 325 992 l 99 992 b 29 963 72 992 48 982 b 0 893 10 944 0 920 l 0 99 b 29 29 0 72 10 48 b 99 0 48 10 72 0 l 297 0 b 368 29 325 0 348 10 b 397 99 387 49 397 72 z "},"Â":{"ha":645,"x_min":0,"x_max":0,"o":"m 0 0 l 198 0 l 297 297 l 397 595 l 595 1190 l 0 1190 l 0 992 l 331 992 l 198 595 l 99 297 z "},"Ã":{"ha":645,"x_min":0,"x_max":0,"o":"m 198 0 l 397 0 l 397 546 l 595 645 l 595 1190 l 0 1190 l 0 992 l 397 992 l 397 744 l 198 645 z "},"Ä":{"ha":645,"x_min":0,"x_max":0,"o":"m 297 0 l 297 0 l 595 297 l 595 1190 l 397 1190 l 397 397 l 297 297 l 198 396 l 198 1190 l 0 1190 l 0 297 z "},"Å":{"ha":645,"x_min":0,"x_max":0,"o":"m 297 0 l 297 0 l 595 297 l 595 992 l 397 992 l 397 397 l 297 297 l 198 396 l 198 992 l 0 992 l 0 297 z "},"Æ":{"ha":645,"x_min":0,"x_max":0,"o":"m 0 0 l 198 0 l 198 496 l 397 496 l 397 0 l 595 0 l 595 595 b 566 665 595 622 585 646 b 496 694 546 685 523 694 l 430 694 l 595 1190 l 397 1190 l 198 595 l 198 1190 l 0 1190 z "},"Ç":{"ha":645,"x_min":0,"x_max":0,"o":"m 397 0 l 595 0 l 595 496 b 566 566 595 523 585 546 b 496 595 546 585 523 595 l 463 595 l 595 992 l 397 992 l 198 397 l 397 397 z m 0 0 l 198 0 l 198 1190 l 0 1190 z "},"È":{"ha":645,"x_min":0,"x_max":0,"o":"m 0 0 l 198 0 l 198 446 l 397 546 l 397 0 l 595 0 l 595 595 l 496 595 l 595 645 l 595 1190 l 397 1190 l 397 744 l 198 645 l 198 1190 l 0 1190 l 0 595 l 99 595 l 0 546 z "},"É":{"ha":645,"x_min":0,"x_max":0,"o":"m 0 0 l 198 0 l 198 347 l 397 446 l 397 0 l 595 0 l 595 496 l 496 496 l 595 546 l 595 992 l 397 992 l 397 645 l 198 546 l 198 992 l 0 992 l 0 496 l 99 496 l 0 446 z "},"Ê":{"ha":645,"x_min":0,"x_max":0,"o":"m 0 0 l 595 0 l 595 595 l 397 496 l 397 198 l 198 198 l 198 446 l 595 645 l 595 1190 l 0 1190 l 0 595 l 198 694 l 198 992 l 397 992 l 397 744 l 0 546 z "},"Ë":{"ha":645,"x_min":0,"x_max":0,"o":"m 0 0 l 595 0 l 595 496 l 397 397 l 397 198 l 198 198 l 198 347 l 595 546 l 595 992 l 0 992 l 0 496 l 198 595 l 198 793 l 397 793 l 397 645 l 0 446 z "},"Ì":{"ha":645,"x_min":0,"x_max":0,"o":"m 0 0 l 198 0 l 198 446 l 397 546 l 397 0 l 595 0 l 595 595 l 496 595 l 595 645 l 595 1190 l 397 1190 l 397 744 l 198 645 l 198 1190 l 0 1190 z "},"Í":{"ha":645,"x_min":0,"x_max":0,"o":"m 0 0 l 198 0 l 198 347 l 397 446 l 397 0 l 595 0 l 595 496 l 496 496 l 595 546 l 595 992 l 397 992 l 397 645 l 198 546 l 198 1190 l 0 1190 z "},"‘":{"ha":248,"x_min":0,"x_max":0,"o":"m 0 793 l 198 793 l 198 1190 l 99 1190 l 0 992 z "},"’":{"ha":248,"x_min":0,"x_max":0,"o":"m 0 793 l 99 793 l 198 992 l 198 1190 l 0 1190 z "},"“":{"ha":496,"x_min":0,"x_max":0,"o":"m 0 793 l 198 793 l 198 1190 l 99 1190 l 0 992 z m 248 793 l 446 793 l 446 1190 l 347 1190 l 248 992 z "},"”":{"ha":496,"x_min":0,"x_max":0,"o":"m 0 793 l 99 793 l 198 992 l 198 1190 l 0 1190 z m 248 793 l 347 793 l 446 992 l 446 1190 l 248 1190 z "}}}
